<svg xmlns="http://www.w3.org/2000/svg" viewBox="0 0 512 512" width="512" height="512">
  <defs>
    <linearGradient id="bg" x1="0%" y1="0%" x2="100%" y2="100%">
      <stop offset="0%" stop-color="#4f46e5" />
      <stop offset="100%" stop-color="#312e81" />
    </linearGradient>
    <linearGradient id="s" x1="0%" y1="0%" x2="100%" y2="100%">
      <stop offset="0%" stop-color="#ffffff" />
      <stop offset="100%" stop-color="#e0e7ff" />
    </linearGradient>
    <filter id="shadow" x="-20%" y="-20%" width="140%" height="140%">
      <feDropShadow dx="0" dy="12" stdDeviation="16" flood-opacity="0.4" flood-color="#000000" />
    </filter>
  </defs>
  <rect width="512" height="512" rx="128" fill="url(#bg)" />
  <path d="M346.5 194.5C346.5 153.2 313.3 120 272 120H216C174.7 120 141.5 153.2 141.5 194.5C141.5 235.8 174.7 269 216 269H272C292.5 269 309 285.5 309 306C309 326.5 292.5 343 272 343H141.5V403.5H272C313.3 403.5 346.5 370.3 346.5 329C346.5 287.7 313.3 254.5 272 254.5H216C195.5 254.5 179 238 179 217.5C179 197 195.5 180.5 216 180.5H346.5V194.5Z" fill="url(#s)" filter="url(#shadow)" transform="translate(12, -6)" />
</svg>
